<svg width="18" height="18" viewBox="0 0 18 18" fill="none" xmlns="http://www.w3.org/2000/svg">
<path d="M18 1.99472C18 0.894365 17.0752 0 15.9375 0H2.06255C0.924774 0 0 0.894365 0 1.99472V15.4134C0 16.5137 0.924774 17.4081 2.06255 17.4081H15.9375C17.0752 17.4081 18 16.5137 18 15.4134V1.99472Z" fill="#4CAF50"/>
<path d="M13.5615 5.83398C13.8547 6.11754 13.8547 6.57588 13.5615 6.85957L8.68642 11.5742C8.54016 11.7156 8.34818 11.7868 8.15619 11.7868C7.9642 11.7868 7.77222 11.7156 7.62596 11.5742L5.18851 9.21687C4.89517 8.93331 4.89517 8.47484 5.18851 8.19128C5.4817 7.9076 5.95563 7.9076 6.24896 8.19128L8.15619 10.0358L12.501 5.83398C12.7942 5.55029 13.2681 5.55029 13.5615 5.83398Z" fill="#FAFAFA"/>
</svg>
